PathFileType	4	(X/Y/Z)	C:\Users\Basilio\Documents\Thesis Gigler\squatting_fais\c3dfiles\058\SLS_back_pre3\markers_experimental.trc
DataRate	CameraRate	NumFrames	NumMarkers	Units	OrigDataRate	OrigDataStartFrame	OrigNumFrames
200.000000	200.000000	4	59	mm	200.000000	0	1203
Frame#	Time	FHD			LBHD			RBHD			C7			T10			CLAV			LSHO			LUUPA			LMUPA			LDUPA			LLEP			LMEP			LUL			LRFIN			RSHO			RUPA1			RMUPA			RDUPA			RLEP			RMEP			RUL			RUFIN			LASI			RASI			USACR			LSACR			RSACR			LTHI1			LTHI2			LTHI3			LTHI4			LLFC			LMFC			LTIB1			LTIB2			LTIB3			LTIB4			LLMAL			LMMAL			LHEE			LMT1			LMT2			LMT5			RTHI			RTHI2			RTHI3			RTHI4			RLFC			RMFC			RTIB1			RTIB2			RTIB3			RTIB4			RLMAL			RMMAL			RHEE			RMT1			RMT2			RMT5			
		X1	Y1	Z1	X2	Y2	Z2	X3	Y3	Z3	X4	Y4	Z4	X5	Y5	Z5	X6	Y6	Z6	X7	Y7	Z7	X8	Y8	Z8	X9	Y9	Z9	X10	Y10	Z10	X11	Y11	Z11	X12	Y12	Z12	X13	Y13	Z13	X14	Y14	Z14	X15	Y15	Z15	X16	Y16	Z16	X17	Y17	Z17	X18	Y18	Z18	X19	Y19	Z19	X20	Y20	Z20	X21	Y21	Z21	X22	Y22	Z22	X23	Y23	Z23	X24	Y24	Z24	X25	Y25	Z25	X26	Y26	Z26	X27	Y27	Z27	X28	Y28	Z28	X29	Y29	Z29	X30	Y30	Z30	X31	Y31	Z31	X32	Y32	Z32	X33	Y33	Z33	X34	Y34	Z34	X35	Y35	Z35	X36	Y36	Z36	X37	Y37	Z37	X38	Y38	Z38	X39	Y39	Z39	X40	Y40	Z40	X41	Y41	Z41	X42	Y42	Z42	X43	Y43	Z43	X44	Y44	Z44	X45	Y45	Z45	X46	Y46	Z46	X47	Y47	Z47	X48	Y48	Z48	X49	Y49	Z49	X50	Y50	Z50	X51	Y51	Z51	X52	Y52	Z52	X53	Y53	Z53	X54	Y54	Z54	X55	Y55	Z55	X56	Y56	Z56	X57	Y57	Z57	X58	Y58	Z58	X59	Y59	Z59	

1	0	-288.4584655761719	1797.4775390625	-637.2935791015626	-446.0559692382814	1756.583862304688	-716.1221923828126	-272.3644104003907	1803.799560546875	-780.5308227539065	-457.9385986328126	1585.35986328125	-731.3909912109376	-441.5294799804689	1277.560180664063	-715.8985595703126	-299.3943481445313	1548.54736328125	-710.9024658203126	-311.0607910156251	1599.374633789063	-864.3975830078127	-150.4888763427735	1533.035522460938	-965.0678710937502	-128.056396484375	1571.803833007813	-940.8182373046877	-81.0112762451172	1536.825317382813	-955.570495605469	-6.983050823211672	1544.352294921875	-936.6022949218752	-1.99716854095459	1488.8115234375	-903.2778320312502	257.2329711914063	1591.473022460938	-888.4102783203127	346.5294799804688	1594.2451171875	-802.3945312500002	-335.9446105957032	1598.004028320313	-560.0593872070314	-176.0026397705078	1515.9169921875	-453.1112060546876	-154.2685089111328	1555.144409179688	-476.4968261718751	-107.1783599853516	1526.646850585938	-455.0342407226564	-39.59482574462891	1521.098999023438	-463.6756591796876	-30.75714492797852	1461.519287109375	-513.9768676757814	227.2948760986329	1574.89453125	-476.0534667968751	316.8835449218751	1597.775146484375	-545.5701293945314	-252.3310241699219	1088.986450195313	-848.6851806640627	-246.0849304199219	1078.296264648438	-607.5454711914064	-447.5321044921876	1159.215087890625	-709.4429321289064	-453.2272338867189	1128.224365234375	-738.5905761718751	-446.523162841797	1125.956298828125	-681.2453613281251	-222.1922912597657	817.2340087890627	-929.1995239257815	-171.7303161621094	748.4431152343751	-922.538024902344	-130.426986694336	758.4057006835939	-894.640563964844	-185.9562225341797	690.0610351562501	-919.5452880859377	-184.7148742675782	605.4478149414064	-907.0789794921877	-166.3762817382813	587.8935546875001	-779.181823730469	-234.1957550048829	480.827362060547	-880.8828735351565	-303.2689819335938	508.093963623047	-922.4796142578127	-282.4740295410157	469.918182373047	-909.4426269531252	-344.8770751953126	418.8738098144532	-885.017761230469	-544.6745605468751	349.7333068847657	-880.5920410156252	-498.3251953125001	328.5157775878907	-801.9895629882815	-585.5162963867189	383.8468322753907	-813.3515625000002	-497.2534179687501	181.6345520019532	-829.5236816406252	-508.9664001464845	178.3780059814453	-875.111022949219	-563.2683105468751	209.9002075195313	-910.778259277344	-347.1651611328126	862.7508544921877	-554.7069091796876	-309.9178161621094	808.3121337890627	-560.6962280273439	-277.5542907714844	808.973815917969	-563.1426391601564	-337.7977600097657	731.4198608398439	-580.8424072265626	-332.3103332519532	550.4128417968751	-613.5302124023439	-299.6472778320313	549.9515380859376	-747.5052490234376	-291.3607177734376	353.0536193847657	-718.5497436523439	-332.3229675292969	270.1771240234376	-659.6591796875001	-297.5649414062501	265.5691833496094	-692.1915283203126	-309.5185852050782	225.5815582275391	-731.5172729492189	-373.6856384277344	117.7893371582032	-700.8859252929689	-342.5835266113282	144.4723663330078	-787.0241699218752	-439.3259887695314	102.2708206176758	-764.1300659179689	-228.3377838134766	60.99610519409181	-776.6853637695315	-222.8753662109376	59.41464996337892	-725.2929687500001	-273.2668151855469	27.78502082824708	-673.2222290039064	
2	0.005	-288.5455932617188	1797.490234375	-637.3111572265626	-446.1129760742189	1756.54931640625	-716.1789550781251	-272.4037170410157	1803.718872070313	-780.5396118164065	-457.9385986328126	1585.35986328125	-731.3909912109376	-441.5294799804689	1277.560180664063	-715.8985595703126	-299.4704284667969	1548.459350585938	-710.8442993164064	-311.0580749511719	1599.326049804688	-864.3797607421877	-150.4187164306641	1532.949829101563	-965.056823730469	-128.0861511230469	1571.7666015625	-940.7937622070315	-80.98593139648439	1536.80029296875	-955.5047607421877	-7.048661708831789	1544.35302734375	-936.545104980469	-1.998625040054322	1488.947265625	-903.2423095703127	257.2277526855469	1591.557373046875	-888.3045043945315	346.5264892578126	1594.376586914063	-802.2503662109377	-335.9985656738282	1597.988159179688	-560.0631103515626	-176.0914001464844	1515.880126953125	-453.068328857422	-154.3268280029297	1555.148315429688	-476.4774475097657	-107.1988906860352	1526.669799804688	-454.9784240722657	-39.65165710449219	1521.144775390625	-463.639617919922	-30.80539894104005	1461.593017578125	-513.9267578125001	227.288314819336	1574.935546875	-476.0520935058595	316.8702087402344	1597.865844726563	-545.5173950195314	-252.1759948730469	1088.950317382813	-848.592224121094	-246.0781250000001	1078.31396484375	-607.5269165039064	-447.5169372558595	1159.216064453125	-709.4693603515626	-453.2013549804689	1128.180541992188	-738.6201782226564	-446.5091247558595	1125.927612304688	-681.2756958007814	-222.2123565673829	817.1480102539065	-929.0767822265627	-171.76123046875	748.3402709960939	-922.423767089844	-130.3888397216797	758.3656005859376	-894.5366821289065	-185.8673095703125	689.9946899414064	-919.4855957031252	-184.6457824707032	605.2901611328126	-906.9661865234377	-166.5843963623047	587.7146606445314	-779.0171508789065	-234.2015228271485	480.8278198242189	-880.7884521484377	-303.3283081054688	508.0932617187501	-922.422790527344	-282.5269470214844	469.9151611328126	-909.3037109375002	-344.9520263671876	418.8175354003907	-884.9453125000002	-544.7417602539064	349.7274169921876	-880.5168457031252	-498.5059814453126	328.5075073242188	-801.839538574219	-585.6726074218751	383.8120117187501	-813.257751464844	-497.3136291503907	181.5852661132813	-829.4652099609377	-509.0025634765626	178.3617095947266	-875.0738525390627	-563.3326416015626	209.9224243164063	-910.712341308594	-347.1908874511719	862.7708740234377	-554.6034545898439	-309.9754333496094	808.3029785156252	-560.5523681640626	-277.6384582519532	809.0114746093752	-563.0070800781251	-337.7755126953126	731.4295043945314	-580.7056884765626	-332.2612609863282	550.4029541015626	-613.3830566406251	-299.5435791015626	549.9689941406251	-747.3511962890626	-291.3090515136719	353.0614929199219	-718.3820190429689	-332.3241882324219	270.2334594726563	-659.4574584960939	-297.5912475585938	265.5536499023438	-692.0639648437501	-309.4844970703126	225.5658721923829	-731.3701171875001	-373.7024230957032	117.735221862793	-700.7904663085939	-342.4289245605469	144.5176086425782	-786.8990478515627	-439.3160400390626	102.2839965820313	-764.0872802734376	-228.3179168701172	61.02198791503908	-776.6616821289065	-222.9629211425782	59.33765029907228	-725.2808837890626	-273.3257141113282	27.78557014465333	-673.1281127929689	
3	0.01	-288.5807800292969	1797.50634765625	-637.3310546875001	-446.1518859863282	1756.549438476563	-716.2860107421876	-272.4088134765626	1803.7431640625	-780.5673828125002	-458.004119873047	1585.337524414063	-731.3933105468751	-441.5234375000001	1277.55712890625	-715.9284667968751	-299.4425964355469	1548.442993164063	-710.8483276367189	-311.0620422363282	1599.288696289063	-864.3494873046877	-150.4791870117188	1532.877319335938	-964.9790039062502	-128.0794677734375	1571.751831054688	-940.7900390625002	-81.07552337646486	1536.784423828125	-955.4394531250002	-7.005856513977053	1544.361938476563	-936.472351074219	-1.908713340759278	1489.08642578125	-903.268493652344	257.2608642578126	1591.662963867188	-888.2316894531252	346.5026245117188	1594.490844726563	-802.165466308594	-336.0754089355469	1598.017700195313	-560.0243530273439	-176.1470184326172	1515.84912109375	-453.0335083007814	-154.3987274169922	1555.169555664063	-476.4251708984376	-107.2586822509766	1526.6826171875	-454.941864013672	-39.70721435546876	1521.116333007813	-463.5740966796876	-30.86031532287598	1461.636596679688	-513.8003540039064	227.2404785156251	1574.998413085938	-475.9818420410157	316.7835083007813	1597.846313476563	-545.3941040039064	-252.1951141357422	1088.845947265625	-848.5185546875002	-246.1387176513672	1078.347290039063	-607.4472656250001	-447.5729370117189	1159.217041015625	-709.4938354492189	-453.1954345703126	1128.177856445313	-738.6510620117189	-446.5047912597657	1125.934204101563	-681.3107910156251	-222.9550476074219	816.958435058594	-928.523376464844	-171.6699676513672	748.3008422851564	-922.3543701171877	-130.368881225586	758.2985229492189	-894.454772949219	-185.9414520263672	689.9555664062501	-919.3811645507815	-184.7497100830078	605.1458740234376	-906.8684082031252	-166.6275482177735	587.6546020507814	-778.9255371093752	-234.1935272216797	480.800018310547	-880.624206542969	-303.3770446777344	508.0389709472657	-922.345642089844	-282.5209350585938	469.8067321777345	-909.2002563476565	-344.9980468750001	418.7973632812501	-884.8481445312502	-544.7693481445314	349.7243347167969	-880.4559326171877	-498.5640563964845	328.4780883789063	-801.7275390625002	-585.7548828125001	383.7885131835938	-813.2337036132815	-497.414764404297	181.50390625	-829.3817138671877	-509.0861206054689	178.3508605957032	-875.031188964844	-563.3746337890626	209.8879699707032	-910.689392089844	-347.2365417480469	862.725769042969	-554.5531005859376	-309.9915161132813	808.2805786132815	-560.4193725585939	-277.6217041015626	809.053894042969	-562.8309936523439	-337.7766418457032	731.4430541992189	-580.5768432617189	-332.1711120605469	550.4152832031251	-613.2936401367189	-299.3480529785157	549.9838867187501	-747.1853027343751	-291.3236389160157	353.0641784667969	-718.2349853515626	-332.3351440429688	270.2410888671876	-659.2590332031251	-297.5795898437501	265.5691528320313	-691.9005737304689	-309.5665893554688	225.5005645751954	-731.1976928710939	-373.7742004394532	117.757926940918	-700.6719970703126	-342.3190612792969	144.5675811767578	-786.7536621093752	-439.4028625488282	102.2971954345703	-764.0348510742189	-228.2184448242188	61.126277923584	-776.6055297851565	-223.0152587890626	59.31380844116212	-725.2194824218751	-273.3882751464844	27.70273399353028	-673.0949096679689	
4	0.015	-288.6520996093751	1797.510620117188	-637.3536376953126	-446.1844787597657	1756.529052734375	-716.3044433593751	-272.4316711425782	1803.715087890625	-780.5856933593752	-458.0013122558595	1585.332397460938	-731.3895263671876	-441.5159606933595	1277.5234375	-715.9215087890626	-299.5418395996094	1548.44970703125	-710.8000488281251	-311.0149536132813	1599.273071289063	-864.3293457031252	-150.3820037841797	1532.822509765625	-964.9368896484377	-128.0324859619141	1571.72412109375	-940.7761840820315	-80.99073028564455	1536.758422851563	-955.4196777343752	-7.017969131469728	1544.382202148438	-936.394958496094	-1.880233526229859	1489.220092773438	-903.1856689453127	257.2976684570313	1591.769653320313	-888.1381835937502	346.5133361816407	1594.5947265625	-802.0425415039065	-336.1068725585938	1597.99560546875	-559.9730224609376	-176.1689758300782	1515.850219726563	-452.9670410156251	-154.5244140625	1555.176879882813	-476.3787231445314	-107.3630523681641	1526.653930664063	-454.8762817382814	-39.80485916137696	1521.185180664063	-463.5184936523439	-30.89580535888673	1461.685302734375	-513.7584228515626	227.195053100586	1575.12646484375	-475.9479064941407	316.7408752441407	1597.922485351563	-545.3929443359376	-252.144515991211	1088.862426757813	-848.4732055664065	-246.1122589111329	1078.35498046875	-607.3407592773439	-447.5776367187501	1159.09521484375	-709.5451049804689	-453.163543701172	1128.175048828125	-738.7123413085939	-446.4836425781251	1125.9052734375	-681.3380737304689	-222.9384155273438	816.8842773437502	-928.4335937500002	-171.70703125	748.1954956054689	-922.236022949219	-130.3529663085938	758.2660522460939	-894.3401489257815	-185.9239807128907	689.8917236328126	-919.2961425781252	-184.7697906494141	605.0601806640626	-906.7340087890627	-166.7808380126953	587.6080322265626	-778.7938232421877	-234.4607543945313	480.6765747070314	-880.5349121093752	-303.3792114257813	508.0229797363282	-922.294128417969	-282.6129455566407	469.7059326171876	-909.090515136719	-345.0037536621094	418.7916870117189	-884.8145141601565	-544.8232421875001	349.6956787109376	-880.351989746094	-498.6274414062501	328.4606323242188	-801.7254028320315	-585.9076538085939	383.7523803710938	-813.0909423828127	-497.453826904297	181.4898071289063	-829.361267089844	-509.0570373535157	178.361572265625	-875.007751464844	-563.4107055664064	209.8917236328126	-910.6259765625002	-347.2520141601563	862.740905761719	-554.4899291992189	-310.0083923339844	808.322692871094	-560.2739257812501	-277.6785583496094	809.1004638671877	-562.6663208007814	-337.7640991210938	731.4506225585939	-580.4187622070314	-332.1799316406251	550.4361572265626	-613.1779174804689	-299.1909179687501	549.9342041015626	-747.0831298828126	-291.3406982421876	353.0199890136719	-718.0259399414064	-332.4053344726563	270.2311401367188	-659.0717163085939	-297.5946044921876	265.5754394531251	-691.7777099609376	-309.5815734863282	225.4608917236329	-731.0104980468751	-373.8400573730469	117.6627655029297	-700.5644531250001	-342.2929992675782	144.5622100830078	-786.6297607421877	-439.4573364257814	102.2937393188477	-763.9483032226564	-228.2283325195313	61.1482620239258	-776.5745849609377	-223.0413360595704	59.32120895385744	-725.1397705078126	-273.3907165527344	27.71007347106934	-673.0657958984376	
